<svg width="40" height="42" viewBox="0 0 20 21" fill="none" xmlns="http://www.w3.org/2000/svg">
<path d="M10.2331 12.184C10.2809 11.9907 10.2504 11.7863 10.1481 11.6154C10.0458 11.4446 9.88006 11.3211 9.68706 11.272C9.59171 11.2478 9.49251 11.2426 9.39516 11.2569C9.29782 11.2711 9.20426 11.3045 9.11986 11.3551C9.03547 11.4056 8.96191 11.4724 8.90342 11.5515C8.84493 11.6306 8.80266 11.7205 8.77906 11.816L8.65206 12.33C8.13669 12.2098 7.59476 12.296 7.14206 12.57C6.67824 12.8514 6.34489 13.3052 6.21506 13.832C6.08426 14.36 6.16652 14.9182 6.44406 15.386C6.72206 15.855 7.17406 16.194 7.70106 16.328L9.20506 16.708C9.27398 16.7258 9.33871 16.757 9.39552 16.7999C9.45232 16.8429 9.50009 16.8966 9.53606 16.958C9.61087 17.0852 9.63287 17.2366 9.59735 17.3798C9.56184 17.523 9.47162 17.6465 9.34606 17.724C9.28549 17.7607 9.21823 17.785 9.14819 17.7955C9.07814 17.806 9.00671 17.8024 8.93806 17.785L6.68206 17.214C6.58671 17.1898 6.48751 17.1846 6.39016 17.1989C6.29282 17.2131 6.19926 17.2465 6.11486 17.2971C6.03047 17.3476 5.95691 17.4144 5.89842 17.4935C5.83993 17.5726 5.79766 17.6625 5.77406 17.758C5.67406 18.16 5.91906 18.568 6.32106 18.67L7.19806 18.892L7.08306 19.358C6.98306 19.76 7.22806 20.168 7.62906 20.27C7.72441 20.2942 7.82361 20.2994 7.92095 20.2851C8.01829 20.2709 8.11186 20.2375 8.19625 20.1869C8.28065 20.1364 8.3542 20.0696 8.41269 19.9905C8.47118 19.9114 8.51345 19.8215 8.53706 19.726L8.65306 19.259C9.15706 19.366 9.68306 19.277 10.1251 19.009C10.5885 18.728 10.9217 18.275 11.0521 17.749C11.1831 17.2207 11.1009 16.6621 10.8231 16.194C10.6858 15.9621 10.5041 15.7597 10.2884 15.5982C10.0727 15.4367 9.8272 15.3194 9.56606 15.253L8.06206 14.872C7.99321 14.8543 7.92853 14.8232 7.87173 14.7805C7.81493 14.7378 7.76713 14.6842 7.73106 14.623C7.65625 14.4958 7.63424 14.3444 7.66976 14.2012C7.70528 14.058 7.79549 13.9345 7.92106 13.857C7.98155 13.8201 8.04878 13.7956 8.11883 13.785C8.18887 13.7743 8.26034 13.7778 8.32906 13.795L10.5851 14.367C10.6803 14.3911 10.7794 14.3961 10.8767 14.3818C10.9739 14.3675 11.0673 14.3341 11.1516 14.2835C11.2359 14.233 11.3094 14.1663 11.3678 14.0872C11.4262 14.0082 11.4684 13.9184 11.4921 13.823C11.5399 13.6297 11.5094 13.4253 11.4071 13.2544C11.3048 13.0836 11.1391 12.9601 10.9461 12.911L10.1061 12.698L10.2331 12.184ZM15.7501 19V17.25H14.0001C13.8011 17.25 13.6104 17.171 13.4697 17.0303C13.3291 16.8897 13.2501 16.6989 13.2501 16.5C13.2501 16.3011 13.3291 16.1103 13.4697 15.9697C13.6104 15.829 13.8011 15.75 14.0001 15.75H15.7501V14C15.7501 13.8011 15.8291 13.6103 15.9697 13.4697C16.1104 13.329 16.3011 13.25 16.5001 13.25C16.699 13.25 16.8897 13.329 17.0304 13.4697C17.171 13.6103 17.2501 13.8011 17.2501 14V15.75H19.0001C19.199 15.75 19.3897 15.829 19.5304 15.9697C19.671 16.1103 19.7501 16.3011 19.7501 16.5C19.7501 16.6989 19.671 16.8897 19.5304 17.0303C19.3897 17.171 19.199 17.25 19.0001 17.25H17.2501V19C17.2501 19.1989 17.171 19.3897 17.0304 19.5303C16.8897 19.671 16.699 19.75 16.5001 19.75C16.3011 19.75 16.1104 19.671 15.9697 19.5303C15.8291 19.3897 15.7501 19.1989 15.7501 19Z" fill="#F7A600"/>
<path d="M5.75 5C5.75 4.13804 6.09241 3.31139 6.7019 2.7019C7.3114 2.09241 8.13805 1.75 9 1.75C9.86195 1.75 10.6886 2.09241 11.2981 2.7019C11.9076 3.31139 12.25 4.13804 12.25 5C12.25 5.86195 11.9076 6.6886 11.2981 7.29809C10.6886 7.90759 9.86195 8.25 9 8.25C8.13805 8.25 7.3114 7.90759 6.7019 7.29809C6.09241 6.6886 5.75 5.86195 5.75 5ZM11.918 8.748C12.6989 8.14005 13.2704 7.30338 13.5527 6.35486C13.8349 5.40634 13.8139 4.39334 13.4925 3.45735C13.1711 2.52135 12.5654 1.70912 11.76 1.13409C10.9546 0.559063 9.98963 0.249962 9 0.249962C8.01037 0.249962 7.04544 0.559063 6.24001 1.13409C5.43458 1.70912 4.82886 2.52135 4.50747 3.45735C4.18607 4.39334 4.16505 5.40634 4.44734 6.35486C4.72962 7.30338 5.30112 8.14005 6.082 8.748C4.37622 9.35201 2.89954 10.4698 1.85515 11.9476C0.810756 13.4253 0.249987 15.1904 0.25 17V19.5C0.25 19.6989 0.329018 19.8897 0.46967 20.0303C0.610322 20.171 0.801088 20.25 1 20.25C1.19891 20.25 1.38968 20.171 1.53033 20.0303C1.67098 19.8897 1.75 19.6989 1.75 19.5V17C1.75 15.5642 2.17631 14.1608 2.97489 12.9676C3.77347 11.7744 4.90836 10.8451 6.23567 10.2977C7.56299 9.75024 9.02297 9.60923 10.4305 9.89253C11.8381 10.1758 13.1298 10.8707 14.142 11.889C14.2034 11.9697 14.2805 12.0372 14.3687 12.0872C14.4569 12.1372 14.5543 12.1688 14.6551 12.1801C14.7559 12.1914 14.8579 12.182 14.955 12.1527C15.0521 12.1233 15.1422 12.0746 15.2198 12.0094C15.2975 11.9442 15.3611 11.8639 15.4069 11.7734C15.4526 11.6829 15.4794 11.584 15.4858 11.4828C15.4922 11.3816 15.4779 11.2801 15.4439 11.1846C15.4099 11.0891 15.3569 11.0014 15.288 10.927L15.294 10.921C14.3521 9.94499 13.1964 9.20111 11.918 8.748Z" fill="white"/>
</svg>
