<svg width="16" height="16" viewBox="0 0 16 16" fill="none" xmlns="http://www.w3.org/2000/svg">
<path d="M6.66671 8C5.93337 8 5.3056 7.73889 4.78337 7.21667C4.26115 6.69445 4.00004 6.06667 4.00004 5.33333C4.00004 4.6 4.26115 3.97222 4.78337 3.45C5.3056 2.92778 5.93337 2.66667 6.66671 2.66667C7.40004 2.66667 8.02782 2.92778 8.55004 3.45C9.07226 3.97222 9.33337 4.6 9.33337 5.33333C9.33337 6.06667 9.07226 6.69445 8.55004 7.21667C8.02782 7.73889 7.40004 8 6.66671 8Z" fill="white"/>
<path d="M6.66671 8C5.93337 8 5.3056 7.73889 4.78337 7.21667C4.26115 6.69445 4.00004 6.06667 4.00004 5.33333C4.00004 4.6 4.26115 3.97222 4.78337 3.45C5.3056 2.92778 5.93337 2.66667 6.66671 2.66667C7.40004 2.66667 8.02782 2.92778 8.55004 3.45C9.07226 3.97222 9.33337 4.6 9.33337 5.33333C9.33337 6.06667 9.07226 6.69445 8.55004 7.21667C8.02782 7.73889 7.40004 8 6.66671 8Z" fill="#F7A600"/>
<path d="M2.66671 13.3333C2.30004 13.3333 1.98615 13.2028 1.72504 12.9417C1.46393 12.6806 1.33337 12.3667 1.33337 12V11.4667C1.33337 11.1 1.42782 10.7556 1.61671 10.4333C1.8056 10.1111 2.06671 9.86667 2.40004 9.7C3.02226 9.38889 3.67226 9.14167 4.35004 8.95833C5.02782 8.775 5.71671 8.67222 6.41671 8.65C6.5056 8.65 6.58337 8.66944 6.65004 8.70833C6.71671 8.74722 6.77226 8.8 6.81671 8.86667C6.86115 8.93333 6.88893 9.00833 6.90004 9.09167C6.91115 9.175 6.9056 9.26111 6.88337 9.35C6.81671 9.57222 6.76671 9.79722 6.73337 10.025C6.70004 10.2528 6.68337 10.4778 6.68337 10.7C6.68337 11.0333 6.71949 11.3639 6.79171 11.6917C6.86393 12.0194 6.97226 12.3389 7.11671 12.65C7.15004 12.7389 7.16671 12.8222 7.16671 12.9C7.16671 12.9778 7.14449 13.05 7.10004 13.1167C7.0556 13.1833 7.00282 13.2361 6.94171 13.275C6.8806 13.3139 6.8056 13.3333 6.71671 13.3333H2.66671Z" fill="white"/>
<path d="M2.66671 13.3333C2.30004 13.3333 1.98615 13.2028 1.72504 12.9417C1.46393 12.6806 1.33337 12.3667 1.33337 12V11.4667C1.33337 11.1 1.42782 10.7556 1.61671 10.4333C1.8056 10.1111 2.06671 9.86667 2.40004 9.7C3.02226 9.38889 3.67226 9.14167 4.35004 8.95833C5.02782 8.775 5.71671 8.67222 6.41671 8.65C6.5056 8.65 6.58337 8.66944 6.65004 8.70833C6.71671 8.74722 6.77226 8.8 6.81671 8.86667C6.86115 8.93333 6.88893 9.00833 6.90004 9.09167C6.91115 9.175 6.9056 9.26111 6.88337 9.35C6.81671 9.57222 6.76671 9.79722 6.73337 10.025C6.70004 10.2528 6.68337 10.4778 6.68337 10.7C6.68337 11.0333 6.71949 11.3639 6.79171 11.6917C6.86393 12.0194 6.97226 12.3389 7.11671 12.65C7.15004 12.7389 7.16671 12.8222 7.16671 12.9C7.16671 12.9778 7.14449 13.05 7.10004 13.1167C7.0556 13.1833 7.00282 13.2361 6.94171 13.275C6.8806 13.3139 6.8056 13.3333 6.71671 13.3333H2.66671Z" fill="#F7A600"/>
<path fill-rule="evenodd" clip-rule="evenodd" d="M11.3334 14.0167C11.2445 14.0167 11.1556 14.0056 11.0667 13.9833C10.9778 13.9611 10.8945 13.9222 10.8167 13.8667L8.81671 12.7C8.66115 12.6111 8.54171 12.4917 8.45837 12.3417C8.37504 12.1917 8.33337 12.0278 8.33337 11.85V9.5C8.33337 9.32222 8.37504 9.15833 8.45837 9.00833C8.54171 8.85833 8.66115 8.73889 8.81671 8.65L10.8167 7.48333C10.8945 7.42778 10.9778 7.38889 11.0667 7.36667C11.1556 7.34445 11.2445 7.33333 11.3334 7.33333C11.4223 7.33333 11.5084 7.34722 11.5917 7.375C11.675 7.40278 11.7556 7.43889 11.8334 7.48333L13.8334 8.65C13.9889 8.73889 14.1112 8.85833 14.2 9.00833C14.2889 9.15833 14.3334 9.32222 14.3334 9.5V11.85C14.3334 12.0278 14.2889 12.1917 14.2 12.3417C14.1112 12.4917 13.9889 12.6111 13.8334 12.7L11.8334 13.8667C11.7556 13.9111 11.675 13.9472 11.5917 13.975C11.5084 14.0028 11.4223 14.0167 11.3334 14.0167ZM11.3334 10.15L9.76671 9.23333L11.3334 8.33333L12.9 9.23333L11.3334 10.15ZM13.3334 11.8333L11.8334 12.7V10.8833L13.3334 10V11.8333ZM10.8334 12.7167L9.33337 11.8333V10.0167L10.8334 10.9V12.7167Z" fill="white"/>
<path fill-rule="evenodd" clip-rule="evenodd" d="M11.3334 14.0167C11.2445 14.0167 11.1556 14.0056 11.0667 13.9833C10.9778 13.9611 10.8945 13.9222 10.8167 13.8667L8.81671 12.7C8.66115 12.6111 8.54171 12.4917 8.45837 12.3417C8.37504 12.1917 8.33337 12.0278 8.33337 11.85V9.5C8.33337 9.32222 8.37504 9.15833 8.45837 9.00833C8.54171 8.85833 8.66115 8.73889 8.81671 8.65L10.8167 7.48333C10.8945 7.42778 10.9778 7.38889 11.0667 7.36667C11.1556 7.34445 11.2445 7.33333 11.3334 7.33333C11.4223 7.33333 11.5084 7.34722 11.5917 7.375C11.675 7.40278 11.7556 7.43889 11.8334 7.48333L13.8334 8.65C13.9889 8.73889 14.1112 8.85833 14.2 9.00833C14.2889 9.15833 14.3334 9.32222 14.3334 9.5V11.85C14.3334 12.0278 14.2889 12.1917 14.2 12.3417C14.1112 12.4917 13.9889 12.6111 13.8334 12.7L11.8334 13.8667C11.7556 13.9111 11.675 13.9472 11.5917 13.975C11.5084 14.0028 11.4223 14.0167 11.3334 14.0167ZM11.3334 10.15L9.76671 9.23333L11.3334 8.33333L12.9 9.23333L11.3334 10.15ZM13.3334 11.8333L11.8334 12.7V10.8833L13.3334 10V11.8333ZM10.8334 12.7167L9.33337 11.8333V10.0167L10.8334 10.9V12.7167Z" fill="white"/>
</svg>
