<svg width="32" height="32" viewBox="0 0 32 32" fill="none" xmlns="http://www.w3.org/2000/svg">
<path d="M13.3333 16C11.8666 16 10.6111 15.4778 9.56663 14.4333C8.52218 13.3889 7.99996 12.1333 7.99996 10.6667C7.99996 9.2 8.52218 7.94444 9.56663 6.9C10.6111 5.85556 11.8666 5.33333 13.3333 5.33333C14.8 5.33333 16.0555 5.85556 17.1 6.9C18.1444 7.94444 18.6666 9.2 18.6666 10.6667C18.6666 12.1333 18.1444 13.3889 17.1 14.4333C16.0555 15.4778 14.8 16 13.3333 16Z" fill="white"/>
<path d="M13.3333 16C11.8666 16 10.6111 15.4778 9.56663 14.4333C8.52218 13.3889 7.99996 12.1333 7.99996 10.6667C7.99996 9.2 8.52218 7.94444 9.56663 6.9C10.6111 5.85556 11.8666 5.33333 13.3333 5.33333C14.8 5.33333 16.0555 5.85556 17.1 6.9C18.1444 7.94444 18.6666 9.2 18.6666 10.6667C18.6666 12.1333 18.1444 13.3889 17.1 14.4333C16.0555 15.4778 14.8 16 13.3333 16Z" fill="#F7A600"/>
<path d="M5.33329 26.6667C4.59996 26.6667 3.97218 26.4056 3.44996 25.8833C2.92774 25.3611 2.66663 24.7333 2.66663 24V22.9333C2.66663 22.2 2.85551 21.5111 3.23329 20.8667C3.61107 20.2222 4.13329 19.7333 4.79996 19.4C6.0444 18.7778 7.3444 18.2833 8.69996 17.9167C10.0555 17.55 11.4333 17.3444 12.8333 17.3C13.0111 17.3 13.1666 17.3389 13.3 17.4167C13.4333 17.4944 13.5444 17.6 13.6333 17.7333C13.7222 17.8667 13.7777 18.0167 13.8 18.1833C13.8222 18.35 13.8111 18.5222 13.7666 18.7C13.6333 19.1444 13.5333 19.5944 13.4666 20.05C13.4 20.5056 13.3666 20.9556 13.3666 21.4C13.3666 22.0667 13.4388 22.7278 13.5833 23.3833C13.7277 24.0389 13.9444 24.6778 14.2333 25.3C14.3 25.4778 14.3333 25.6444 14.3333 25.8C14.3333 25.9556 14.2888 26.1 14.2 26.2333C14.1111 26.3667 14.0055 26.4722 13.8833 26.55C13.7611 26.6278 13.6111 26.6667 13.4333 26.6667H5.33329Z" fill="white"/>
<path d="M5.33329 26.6667C4.59996 26.6667 3.97218 26.4056 3.44996 25.8833C2.92774 25.3611 2.66663 24.7333 2.66663 24V22.9333C2.66663 22.2 2.85551 21.5111 3.23329 20.8667C3.61107 20.2222 4.13329 19.7333 4.79996 19.4C6.0444 18.7778 7.3444 18.2833 8.69996 17.9167C10.0555 17.55 11.4333 17.3444 12.8333 17.3C13.0111 17.3 13.1666 17.3389 13.3 17.4167C13.4333 17.4944 13.5444 17.6 13.6333 17.7333C13.7222 17.8667 13.7777 18.0167 13.8 18.1833C13.8222 18.35 13.8111 18.5222 13.7666 18.7C13.6333 19.1444 13.5333 19.5944 13.4666 20.05C13.4 20.5056 13.3666 20.9556 13.3666 21.4C13.3666 22.0667 13.4388 22.7278 13.5833 23.3833C13.7277 24.0389 13.9444 24.6778 14.2333 25.3C14.3 25.4778 14.3333 25.6444 14.3333 25.8C14.3333 25.9556 14.2888 26.1 14.2 26.2333C14.1111 26.3667 14.0055 26.4722 13.8833 26.55C13.7611 26.6278 13.6111 26.6667 13.4333 26.6667H5.33329Z" fill="#F7A600"/>
<path fill-rule="evenodd" clip-rule="evenodd" d="M22.6666 28.0333C22.4888 28.0333 22.3111 28.0111 22.1333 27.9667C21.9555 27.9222 21.7888 27.8444 21.6333 27.7333L17.6333 25.4C17.3222 25.2222 17.0833 24.9833 16.9166 24.6833C16.75 24.3833 16.6666 24.0556 16.6666 23.7V19C16.6666 18.6444 16.75 18.3167 16.9166 18.0167C17.0833 17.7167 17.3222 17.4778 17.6333 17.3L21.6333 14.9667C21.7888 14.8556 21.9555 14.7778 22.1333 14.7333C22.3111 14.6889 22.4888 14.6667 22.6666 14.6667C22.8444 14.6667 23.0166 14.6944 23.1833 14.75C23.35 14.8056 23.5111 14.8778 23.6666 14.9667L27.6666 17.3C27.9777 17.4778 28.2222 17.7167 28.4 18.0167C28.5777 18.3167 28.6666 18.6444 28.6666 19V23.7C28.6666 24.0556 28.5777 24.3833 28.4 24.6833C28.2222 24.9833 27.9777 25.2222 27.6666 25.4L23.6666 27.7333C23.5111 27.8222 23.35 27.8944 23.1833 27.95C23.0166 28.0056 22.8444 28.0333 22.6666 28.0333ZM22.6666 20.3L19.5333 18.4667L22.6666 16.6667L25.8 18.4667L22.6666 20.3ZM26.6666 23.6667L23.6666 25.4V21.7667L26.6666 20V23.6667ZM21.6666 25.4333L18.6666 23.6667V20.0333L21.6666 21.8V25.4333Z" fill="white"/>
<path fill-rule="evenodd" clip-rule="evenodd" d="M22.6666 28.0333C22.4888 28.0333 22.3111 28.0111 22.1333 27.9667C21.9555 27.9222 21.7888 27.8444 21.6333 27.7333L17.6333 25.4C17.3222 25.2222 17.0833 24.9833 16.9166 24.6833C16.75 24.3833 16.6666 24.0556 16.6666 23.7V19C16.6666 18.6444 16.75 18.3167 16.9166 18.0167C17.0833 17.7167 17.3222 17.4778 17.6333 17.3L21.6333 14.9667C21.7888 14.8556 21.9555 14.7778 22.1333 14.7333C22.3111 14.6889 22.4888 14.6667 22.6666 14.6667C22.8444 14.6667 23.0166 14.6944 23.1833 14.75C23.35 14.8056 23.5111 14.8778 23.6666 14.9667L27.6666 17.3C27.9777 17.4778 28.2222 17.7167 28.4 18.0167C28.5777 18.3167 28.6666 18.6444 28.6666 19V23.7C28.6666 24.0556 28.5777 24.3833 28.4 24.6833C28.2222 24.9833 27.9777 25.2222 27.6666 25.4L23.6666 27.7333C23.5111 27.8222 23.35 27.8944 23.1833 27.95C23.0166 28.0056 22.8444 28.0333 22.6666 28.0333ZM22.6666 20.3L19.5333 18.4667L22.6666 16.6667L25.8 18.4667L22.6666 20.3ZM26.6666 23.6667L23.6666 25.4V21.7667L26.6666 20V23.6667ZM21.6666 25.4333L18.6666 23.6667V20.0333L21.6666 21.8V25.4333Z" fill="white"/>
</svg>
