<svg width="128" height="128" viewBox="0 0 128 128" fill="none" xmlns="http://www.w3.org/2000/svg">
<path d="M53.3333 64C47.4666 64 42.4444 61.9111 38.2666 57.7333C34.0888 53.5556 32 48.5333 32 42.6667C32 36.8 34.0888 31.7778 38.2666 27.6C42.4444 23.4222 47.4666 21.3333 53.3333 21.3333C59.2 21.3333 64.2222 23.4222 68.4 27.6C72.5777 31.7778 74.6666 36.8 74.6666 42.6667C74.6666 48.5333 72.5777 53.5556 68.4 57.7333C64.2222 61.9111 59.2 64 53.3333 64Z" fill="white"/>
<path d="M53.3333 64C47.4666 64 42.4444 61.9111 38.2666 57.7333C34.0888 53.5556 32 48.5333 32 42.6667C32 36.8 34.0888 31.7778 38.2666 27.6C42.4444 23.4222 47.4666 21.3333 53.3333 21.3333C59.2 21.3333 64.2222 23.4222 68.4 27.6C72.5777 31.7778 74.6666 36.8 74.6666 42.6667C74.6666 48.5333 72.5777 53.5556 68.4 57.7333C64.2222 61.9111 59.2 64 53.3333 64Z" fill="#F7A600"/>
<path d="M21.3333 106.667C18.4 106.667 15.8888 105.622 13.8 103.533C11.7111 101.444 10.6666 98.9333 10.6666 96V91.7333C10.6666 88.8 11.4222 86.0444 12.9333 83.4667C14.4444 80.8889 16.5333 78.9333 19.2 77.6C24.1777 75.1111 29.3777 73.1333 34.8 71.6667C40.2222 70.2 45.7333 69.3778 51.3333 69.2C52.0444 69.2 52.6666 69.3555 53.2 69.6667C53.7333 69.9778 54.1777 70.4 54.5333 70.9333C54.8889 71.4667 55.1111 72.0667 55.2 72.7333C55.2889 73.4 55.2444 74.0889 55.0666 74.8C54.5333 76.5778 54.1333 78.3778 53.8666 80.2C53.6 82.0222 53.4666 83.8222 53.4666 85.6C53.4666 88.2667 53.7555 90.9111 54.3333 93.5333C54.9111 96.1555 55.7777 98.7111 56.9333 101.2C57.2 101.911 57.3333 102.578 57.3333 103.2C57.3333 103.822 57.1555 104.4 56.8 104.933C56.4444 105.467 56.0222 105.889 55.5333 106.2C55.0444 106.511 54.4444 106.667 53.7333 106.667H21.3333Z" fill="white"/>
<path d="M21.3333 106.667C18.4 106.667 15.8888 105.622 13.8 103.533C11.7111 101.444 10.6666 98.9333 10.6666 96V91.7333C10.6666 88.8 11.4222 86.0444 12.9333 83.4667C14.4444 80.8889 16.5333 78.9333 19.2 77.6C24.1777 75.1111 29.3777 73.1333 34.8 71.6667C40.2222 70.2 45.7333 69.3778 51.3333 69.2C52.0444 69.2 52.6666 69.3555 53.2 69.6667C53.7333 69.9778 54.1777 70.4 54.5333 70.9333C54.8889 71.4667 55.1111 72.0667 55.2 72.7333C55.2889 73.4 55.2444 74.0889 55.0666 74.8C54.5333 76.5778 54.1333 78.3778 53.8666 80.2C53.6 82.0222 53.4666 83.8222 53.4666 85.6C53.4666 88.2667 53.7555 90.9111 54.3333 93.5333C54.9111 96.1555 55.7777 98.7111 56.9333 101.2C57.2 101.911 57.3333 102.578 57.3333 103.2C57.3333 103.822 57.1555 104.4 56.8 104.933C56.4444 105.467 56.0222 105.889 55.5333 106.2C55.0444 106.511 54.4444 106.667 53.7333 106.667H21.3333Z" fill="#F7A600"/>
<path fill-rule="evenodd" clip-rule="evenodd" d="M90.6666 112.133C89.9555 112.133 89.2444 112.044 88.5333 111.867C87.8222 111.689 87.1555 111.378 86.5333 110.933L70.5333 101.6C69.2889 100.889 68.3333 99.9333 67.6666 98.7333C67 97.5333 66.6666 96.2222 66.6666 94.8V76C66.6666 74.5778 67 73.2667 67.6666 72.0667C68.3333 70.8667 69.2889 69.9111 70.5333 69.2L86.5333 59.8667C87.1555 59.4222 87.8222 59.1111 88.5333 58.9333C89.2444 58.7556 89.9555 58.6667 90.6666 58.6667C91.3777 58.6667 92.0666 58.7778 92.7333 59C93.4 59.2222 94.0444 59.5111 94.6666 59.8667L110.667 69.2C111.911 69.9111 112.889 70.8667 113.6 72.0667C114.311 73.2667 114.667 74.5778 114.667 76V94.8C114.667 96.2222 114.311 97.5333 113.6 98.7333C112.889 99.9333 111.911 100.889 110.667 101.6L94.6666 110.933C94.0444 111.289 93.4 111.578 92.7333 111.8C92.0666 112.022 91.3777 112.133 90.6666 112.133ZM90.6666 81.2L78.1333 73.8667L90.6666 66.6667L103.2 73.8667L90.6666 81.2ZM106.667 94.6667L94.6666 101.6V87.0667L106.667 80V94.6667ZM86.6666 101.733L74.6666 94.6667V80.1333L86.6666 87.2V101.733Z" fill="white"/>
<path fill-rule="evenodd" clip-rule="evenodd" d="M90.6666 112.133C89.9555 112.133 89.2444 112.044 88.5333 111.867C87.8222 111.689 87.1555 111.378 86.5333 110.933L70.5333 101.6C69.2889 100.889 68.3333 99.9333 67.6666 98.7333C67 97.5333 66.6666 96.2222 66.6666 94.8V76C66.6666 74.5778 67 73.2667 67.6666 72.0667C68.3333 70.8667 69.2889 69.9111 70.5333 69.2L86.5333 59.8667C87.1555 59.4222 87.8222 59.1111 88.5333 58.9333C89.2444 58.7556 89.9555 58.6667 90.6666 58.6667C91.3777 58.6667 92.0666 58.7778 92.7333 59C93.4 59.2222 94.0444 59.5111 94.6666 59.8667L110.667 69.2C111.911 69.9111 112.889 70.8667 113.6 72.0667C114.311 73.2667 114.667 74.5778 114.667 76V94.8C114.667 96.2222 114.311 97.5333 113.6 98.7333C112.889 99.9333 111.911 100.889 110.667 101.6L94.6666 110.933C94.0444 111.289 93.4 111.578 92.7333 111.8C92.0666 112.022 91.3777 112.133 90.6666 112.133ZM90.6666 81.2L78.1333 73.8667L90.6666 66.6667L103.2 73.8667L90.6666 81.2ZM106.667 94.6667L94.6666 101.6V87.0667L106.667 80V94.6667ZM86.6666 101.733L74.6666 94.6667V80.1333L86.6666 87.2V101.733Z" fill="white"/>
</svg>
