<svg width="256" height="256" viewBox="0 0 256 256" fill="none" xmlns="http://www.w3.org/2000/svg">
<path d="M106.667 128C94.9334 128 84.8889 123.822 76.5334 115.467C68.1778 107.111 64 97.0667 64 85.3333C64 73.6 68.1778 63.5556 76.5334 55.2C84.8889 46.8444 94.9334 42.6667 106.667 42.6667C118.4 42.6667 128.444 46.8444 136.8 55.2C145.156 63.5556 149.333 73.6 149.333 85.3333C149.333 97.0667 145.156 107.111 136.8 115.467C128.444 123.822 118.4 128 106.667 128Z" fill="white"/>
<path d="M106.667 128C94.9334 128 84.8889 123.822 76.5334 115.467C68.1778 107.111 64 97.0667 64 85.3333C64 73.6 68.1778 63.5556 76.5334 55.2C84.8889 46.8444 94.9334 42.6667 106.667 42.6667C118.4 42.6667 128.444 46.8444 136.8 55.2C145.156 63.5556 149.333 73.6 149.333 85.3333C149.333 97.0667 145.156 107.111 136.8 115.467C128.444 123.822 118.4 128 106.667 128Z" fill="#F7A600"/>
<path d="M42.6667 213.333C36.8 213.333 31.7778 211.244 27.6 207.067C23.4223 202.889 21.3334 197.867 21.3334 192V183.467C21.3334 177.6 22.8445 172.089 25.8667 166.933C28.8889 161.778 33.0667 157.867 38.4 155.2C48.3556 150.222 58.7556 146.267 69.6 143.333C80.4445 140.4 91.4667 138.756 102.667 138.4C104.089 138.4 105.333 138.711 106.4 139.333C107.467 139.956 108.356 140.8 109.067 141.867C109.778 142.933 110.222 144.133 110.4 145.467C110.578 146.8 110.489 148.178 110.133 149.6C109.067 153.156 108.267 156.756 107.733 160.4C107.2 164.044 106.933 167.644 106.933 171.2C106.933 176.533 107.511 181.822 108.667 187.067C109.822 192.311 111.556 197.422 113.867 202.4C114.4 203.822 114.667 205.156 114.667 206.4C114.667 207.644 114.311 208.8 113.6 209.867C112.889 210.933 112.044 211.778 111.067 212.4C110.089 213.022 108.889 213.333 107.467 213.333H42.6667Z" fill="white"/>
<path d="M42.6667 213.333C36.8 213.333 31.7778 211.244 27.6 207.067C23.4223 202.889 21.3334 197.867 21.3334 192V183.467C21.3334 177.6 22.8445 172.089 25.8667 166.933C28.8889 161.778 33.0667 157.867 38.4 155.2C48.3556 150.222 58.7556 146.267 69.6 143.333C80.4445 140.4 91.4667 138.756 102.667 138.4C104.089 138.4 105.333 138.711 106.4 139.333C107.467 139.956 108.356 140.8 109.067 141.867C109.778 142.933 110.222 144.133 110.4 145.467C110.578 146.8 110.489 148.178 110.133 149.6C109.067 153.156 108.267 156.756 107.733 160.4C107.2 164.044 106.933 167.644 106.933 171.2C106.933 176.533 107.511 181.822 108.667 187.067C109.822 192.311 111.556 197.422 113.867 202.4C114.4 203.822 114.667 205.156 114.667 206.4C114.667 207.644 114.311 208.8 113.6 209.867C112.889 210.933 112.044 211.778 111.067 212.4C110.089 213.022 108.889 213.333 107.467 213.333H42.6667Z" fill="#F7A600"/>
<path fill-rule="evenodd" clip-rule="evenodd" d="M181.333 224.267C179.911 224.267 178.489 224.089 177.067 223.733C175.644 223.378 174.311 222.756 173.067 221.867L141.067 203.2C138.578 201.778 136.667 199.867 135.333 197.467C134 195.067 133.333 192.444 133.333 189.6V152C133.333 149.156 134 146.533 135.333 144.133C136.667 141.733 138.578 139.822 141.067 138.4L173.067 119.733C174.311 118.844 175.644 118.222 177.067 117.867C178.489 117.511 179.911 117.333 181.333 117.333C182.756 117.333 184.133 117.556 185.467 118C186.8 118.444 188.089 119.022 189.333 119.733L221.333 138.4C223.822 139.822 225.778 141.733 227.2 144.133C228.622 146.533 229.333 149.156 229.333 152V189.6C229.333 192.444 228.622 195.067 227.2 197.467C225.778 199.867 223.822 201.778 221.333 203.2L189.333 221.867C188.089 222.578 186.8 223.156 185.467 223.6C184.133 224.044 182.756 224.267 181.333 224.267ZM181.333 162.4L156.267 147.733L181.333 133.333L206.4 147.733L181.333 162.4ZM213.333 189.333L189.333 203.2V174.133L213.333 160V189.333ZM173.333 203.467L149.333 189.333V160.267L173.333 174.4V203.467Z" fill="white"/>
<path fill-rule="evenodd" clip-rule="evenodd" d="M181.333 224.267C179.911 224.267 178.489 224.089 177.067 223.733C175.644 223.378 174.311 222.756 173.067 221.867L141.067 203.2C138.578 201.778 136.667 199.867 135.333 197.467C134 195.067 133.333 192.444 133.333 189.6V152C133.333 149.156 134 146.533 135.333 144.133C136.667 141.733 138.578 139.822 141.067 138.4L173.067 119.733C174.311 118.844 175.644 118.222 177.067 117.867C178.489 117.511 179.911 117.333 181.333 117.333C182.756 117.333 184.133 117.556 185.467 118C186.8 118.444 188.089 119.022 189.333 119.733L221.333 138.4C223.822 139.822 225.778 141.733 227.2 144.133C228.622 146.533 229.333 149.156 229.333 152V189.6C229.333 192.444 228.622 195.067 227.2 197.467C225.778 199.867 223.822 201.778 221.333 203.2L189.333 221.867C188.089 222.578 186.8 223.156 185.467 223.6C184.133 224.044 182.756 224.267 181.333 224.267ZM181.333 162.4L156.267 147.733L181.333 133.333L206.4 147.733L181.333 162.4ZM213.333 189.333L189.333 203.2V174.133L213.333 160V189.333ZM173.333 203.467L149.333 189.333V160.267L173.333 174.4V203.467Z" fill="white"/>
</svg>
