<svg width="24" height="24" viewBox="0 0 24 24" fill="none" xmlns="http://www.w3.org/2000/svg">
<path d="M10 12C8.9 12 7.95833 11.6083 7.175 10.825C6.39167 10.0417 6 9.1 6 8C6 6.9 6.39167 5.95833 7.175 5.175C7.95833 4.39167 8.9 4 10 4C11.1 4 12.0417 4.39167 12.825 5.175C13.6083 5.95833 14 6.9 14 8C14 9.1 13.6083 10.0417 12.825 10.825C12.0417 11.6083 11.1 12 10 12Z" fill="white"/>
<path d="M10 12C8.9 12 7.95833 11.6083 7.175 10.825C6.39167 10.0417 6 9.1 6 8C6 6.9 6.39167 5.95833 7.175 5.175C7.95833 4.39167 8.9 4 10 4C11.1 4 12.0417 4.39167 12.825 5.175C13.6083 5.95833 14 6.9 14 8C14 9.1 13.6083 10.0417 12.825 10.825C12.0417 11.6083 11.1 12 10 12Z" fill="#F7A600"/>
<path d="M4 20C3.45 20 2.97917 19.8042 2.5875 19.4125C2.19583 19.0208 2 18.55 2 18V17.2C2 16.65 2.14167 16.1333 2.425 15.65C2.70833 15.1667 3.1 14.8 3.6 14.55C4.53333 14.0833 5.50833 13.7125 6.525 13.4375C7.54167 13.1625 8.575 13.0083 9.625 12.975C9.75833 12.975 9.875 13.0042 9.975 13.0625C10.075 13.1208 10.1583 13.2 10.225 13.3C10.2917 13.4 10.3333 13.5125 10.35 13.6375C10.3667 13.7625 10.3583 13.8917 10.325 14.025C10.225 14.3583 10.15 14.6958 10.1 15.0375C10.05 15.3792 10.025 15.7167 10.025 16.05C10.025 16.55 10.0792 17.0458 10.1875 17.5375C10.2958 18.0292 10.4583 18.5083 10.675 18.975C10.725 19.1083 10.75 19.2333 10.75 19.35C10.75 19.4667 10.7167 19.575 10.65 19.675C10.5833 19.775 10.5042 19.8542 10.4125 19.9125C10.3208 19.9708 10.2083 20 10.075 20H4Z" fill="white"/>
<path d="M4 20C3.45 20 2.97917 19.8042 2.5875 19.4125C2.19583 19.0208 2 18.55 2 18V17.2C2 16.65 2.14167 16.1333 2.425 15.65C2.70833 15.1667 3.1 14.8 3.6 14.55C4.53333 14.0833 5.50833 13.7125 6.525 13.4375C7.54167 13.1625 8.575 13.0083 9.625 12.975C9.75833 12.975 9.875 13.0042 9.975 13.0625C10.075 13.1208 10.1583 13.2 10.225 13.3C10.2917 13.4 10.3333 13.5125 10.35 13.6375C10.3667 13.7625 10.3583 13.8917 10.325 14.025C10.225 14.3583 10.15 14.6958 10.1 15.0375C10.05 15.3792 10.025 15.7167 10.025 16.05C10.025 16.55 10.0792 17.0458 10.1875 17.5375C10.2958 18.0292 10.4583 18.5083 10.675 18.975C10.725 19.1083 10.75 19.2333 10.75 19.35C10.75 19.4667 10.7167 19.575 10.65 19.675C10.5833 19.775 10.5042 19.8542 10.4125 19.9125C10.3208 19.9708 10.2083 20 10.075 20H4Z" fill="#F7A600"/>
<path fill-rule="evenodd" clip-rule="evenodd" d="M17 21.025C16.8667 21.025 16.7333 21.0083 16.6 20.975C16.4667 20.9417 16.3417 20.8833 16.225 20.8L13.225 19.05C12.9917 18.9167 12.8125 18.7375 12.6875 18.5125C12.5625 18.2875 12.5 18.0417 12.5 17.775V14.25C12.5 13.9833 12.5625 13.7375 12.6875 13.5125C12.8125 13.2875 12.9917 13.1083 13.225 12.975L16.225 11.225C16.3417 11.1417 16.4667 11.0833 16.6 11.05C16.7333 11.0167 16.8667 11 17 11C17.1333 11 17.2625 11.0208 17.3875 11.0625C17.5125 11.1042 17.6333 11.1583 17.75 11.225L20.75 12.975C20.9833 13.1083 21.1667 13.2875 21.3 13.5125C21.4333 13.7375 21.5 13.9833 21.5 14.25V17.775C21.5 18.0417 21.4333 18.2875 21.3 18.5125C21.1667 18.7375 20.9833 18.9167 20.75 19.05L17.75 20.8C17.6333 20.8667 17.5125 20.9208 17.3875 20.9625C17.2625 21.0042 17.1333 21.025 17 21.025ZM17 15.225L14.65 13.85L17 12.5L19.35 13.85L17 15.225ZM20 17.75L17.75 19.05V16.325L20 15V17.75ZM16.25 19.075L14 17.75V15.025L16.25 16.35V19.075Z" fill="white"/>
<path fill-rule="evenodd" clip-rule="evenodd" d="M17 21.025C16.8667 21.025 16.7333 21.0083 16.6 20.975C16.4667 20.9417 16.3417 20.8833 16.225 20.8L13.225 19.05C12.9917 18.9167 12.8125 18.7375 12.6875 18.5125C12.5625 18.2875 12.5 18.0417 12.5 17.775V14.25C12.5 13.9833 12.5625 13.7375 12.6875 13.5125C12.8125 13.2875 12.9917 13.1083 13.225 12.975L16.225 11.225C16.3417 11.1417 16.4667 11.0833 16.6 11.05C16.7333 11.0167 16.8667 11 17 11C17.1333 11 17.2625 11.0208 17.3875 11.0625C17.5125 11.1042 17.6333 11.1583 17.75 11.225L20.75 12.975C20.9833 13.1083 21.1667 13.2875 21.3 13.5125C21.4333 13.7375 21.5 13.9833 21.5 14.25V17.775C21.5 18.0417 21.4333 18.2875 21.3 18.5125C21.1667 18.7375 20.9833 18.9167 20.75 19.05L17.75 20.8C17.6333 20.8667 17.5125 20.9208 17.3875 20.9625C17.2625 21.0042 17.1333 21.025 17 21.025ZM17 15.225L14.65 13.85L17 12.5L19.35 13.85L17 15.225ZM20 17.75L17.75 19.05V16.325L20 15V17.75ZM16.25 19.075L14 17.75V15.025L16.25 16.35V19.075Z" fill="white"/>
</svg>
